<svg fill="none" height="44" viewBox="0 0 118 44" width="118" xmlns="http://www.w3.org/2000/svg"><g fill="#a77c4f"><path d="m17.2921 6.89763h1.1931v.77862c.2464-.47686.8089-.88572 1.5678-.88572.6702 0 1.2035.2822 1.4593.91459.3945-.63239 1.1044-.91459 1.7453-.91459.9467 0 1.716.57371 1.716 1.9754v3.22067h-1.1931v-3.14337c0-.74974-.3257-1.07012-.9175-1.07012s-1.1336.3893-1.1336 1.16791v3.04558h-1.1931v-3.14337c0-.74974-.3351-1.07012-.9175-1.07012-.5823 0-1.1336.3893-1.1336 1.16791v3.04558h-1.1931z"/><path d="m27.7052 11.4707-2.0417-4.57299h1.2922l1.3706 3.27929 1.2619-3.27929h1.1639l-2.811 6.83059h-1.1732l.9363-2.2576z"/><path d="m31.9452 10.5662v-2.78287h-.69v-.88572h.69v-1.11856h1.193v1.11856h1.1337v.88572h-1.1337v2.67577c0 .448.2171.652.5919.652.2369 0 .4143-.0289.5814-.0978v.9341c-.1869.068-.4436.1267-.8089.1267-1.026 0-1.5584-.5449-1.5584-1.5088z"/><path d="m35.0411 9.50543v-.07824c0-1.61497 1.1638-2.63666 2.6033-2.63666 1.144 0 2.2191.50572 2.3569 1.90741h-1.1535c-.0991-.68082-.5521-.96302-1.1836-.96302-.8184 0-1.4007.62308-1.4007 1.67365v.07823c0 1.1092.5521 1.6932 1.43 1.6932.6314 0 1.1732-.3697 1.2431-1.0897h1.0949c-.0887 1.1679-.9864 1.995-2.3862 1.995-1.4791 0-2.6032-.9537-2.6032-2.57894z"/><path d="m40.6818 10.5756c0-1.18748 1.1639-1.61497 2.6429-1.61497h.6409v-.26264c0-.68082-.2369-1.0217-.9372-1.0217-.6211 0-.9269.29245-.9864.79817h-1.1534c.0991-1.18748 1.0552-1.68296 2.2087-1.68296 1.1534 0 2.0614.46661 2.0614 1.85899v3.33801h-1.1732v-.6231c-.3351.4377-.7891.7199-1.5782.7199-.9467 0-1.7255-.448-1.7255-1.5088zm3.2838-.3698v-.50568h-.6116c-.9071 0-1.4895.20397-1.4895.82708 0 .4284.237.7106.8288.7106.7296 0 1.2723-.3791 1.2723-1.031z"/><path d="m46.1347 10.4005h1.1242c.0594.516.3256.8177 1.026.8177.6409 0 .9269-.2235.9269-.6519s-.3455-.57466-1.1044-.70039c-1.3611-.21422-1.8641-.59328-1.8641-1.54698 0-1.0217.9665-1.52743 1.933-1.52743 1.0553 0 1.8935.38931 2.0219 1.53767h-1.1044c-.0982-.46661-.3643-.68082-.9175-.68082-.5125 0-.8183.24308-.8183.60352 0 .36043.2463.51597 1.0647.65195 1.2129.1844 1.9331.47685 1.9331 1.55718 0 1.0804-.74 1.6253-2.0605 1.6253s-2.1106-.6036-2.1597-1.6839z"/><path d="m51.3318 11.2955c0-.4285.3455-.7684.7797-.7684s.7891.3409.7891.7684-.3455.759-.7891.759c-.4437 0-.7797-.3306-.7797-.759z"/><path d="m53.6585 9.50543v-.07824c0-1.61497 1.1638-2.63666 2.6033-2.63666 1.144 0 2.2191.50572 2.3569 1.90741h-1.1535c-.0991-.68082-.5521-.96302-1.1836-.96302-.8184 0-1.4007.62308-1.4007 1.67365v.07823c0 1.1092.5521 1.6932 1.4299 1.6932.6315 0 1.1733-.3697 1.2432-1.0897h1.0949c-.0887 1.1679-.9864 1.995-2.3862 1.995-1.4791 0-2.6032-.9537-2.6032-2.57894z"/><path d="m59.3285 9.49514v-.07824c0-1.57678 1.1345-2.62735 2.6533-2.62735 1.5187 0 2.6429 1.04126 2.6429 2.59848v.07823c0 1.58614-1.1336 2.61804-2.6524 2.61804-1.5187 0-2.6429-1.0413-2.6429-2.58823zm4.0729-.01956v-.06799c0-1.05057-.5324-1.6932-1.4206-1.6932s-1.43.63239-1.43 1.68295v.07824c0 1.04122.5229 1.69322 1.43 1.69322s1.4206-.652 1.4206-1.69322z"/><path d="m65.6988 6.89763h1.1931v.77862c.2464-.47686.8089-.88572 1.5678-.88572.6702 0 1.2035.2822 1.4593.91459.3945-.63239 1.1043-.91459 1.7452-.91459.9468 0 1.716.57371 1.716 1.9754v3.22067h-1.193v-3.14337c0-.74974-.3257-1.07012-.9175-1.07012s-1.1336.3893-1.1336 1.16791v3.04558h-1.1931v-3.14337c0-.74974-.3351-1.07012-.9175-1.07012s-1.1345.3893-1.1345 1.16791v3.04558h-1.1931v-5.08897z"/></g><path d="m4.963 21.4596h-4.963v-3.1964h14.1169v3.1964h-4.96301v14.9445h-4.19089z" fill="#1a477f"/><path d="m43.943 32.3694-1.2601 4.0337h-3.9087l6.0428-18.1409h5.4255l5.9655 18.1409h-4.3457l-4.577-14.7917-3.3432 10.758z" fill="#1a477f"/><path d="m59.622 30.7208h3.9861c.1803 1.6243.874 2.9683 3.6 2.9683 1.8255 0 3.0337-.9891 3.0337-2.4104 0-1.4212-.7712-1.954-3.4717-2.3591-4.7053-.6091-6.6337-2.0043-6.6337-5.5062 0-3.0958 2.6231-5.4046 6.6857-5.4046 4.0625 0 6.5572 1.8264 6.8913 5.4298h-3.8312c-.2577-1.6494-1.2347-2.4104-3.0601-2.4104-1.8255 0-2.7515.8373-2.7515 2.0546 0 1.2946.5918 1.9028 3.4197 2.3088 4.4486.5579 6.7366 1.751 6.7366 5.5062 0 3.2225-2.6741 5.7846-7.0197 5.7846-5.0395 0-7.3539-2.3339-7.5852-5.9625z" fill="#1a477f"/><path d="m34.3917 27.8914-3.0639.0102c-.0396 2.7922-1.2742 4.3168-2.5126 5.1467l4.693-.8746c1.0676-2.1803.8835-4.2823.8835-4.2823z" fill="#ffb600"/><path d="m31.7526 28.6001c-.4115 2.3489-1.5376 3.6518-2.7005 4.3736l4.6742-.6174c.9401-1.7147 1.0543-3.2933 1.0543-3.2933z" fill="#ff3918"/><path d="m31.8696 29.4531c-.5965 1.6951-1.4942 2.7391-2.4428 3.3771l4.4486-.3483c.6768-1.1465.9052-2.0872.9052-2.0872l-2.9119-.9416z" fill="#00a3ab"/><path d="m31.9669 30.2205c-.7363 1.2647-1.6084 2.0787-2.4976 2.5919l4.609-.1611c.3889-.5681.572-.9705.572-.9705l-2.6834-1.4594z" fill="#00709a"/><path d="m31.4902 31.3326c-1.0675 1.2368-2.6269 1.9465-4.2777 1.9465-3.1734 0-5.755-2.6571-5.755-5.9225 0-3.2653 2.5816-5.9224 5.755-5.9224 1.6518 0 3.2102.7096 4.2777 1.9465l.4247.4927 2.6345-2.2055-.4239-.4945c-1.6848-1.9624-4.205-3.0875-6.913-3.0875-5.1395 0-9.321 4.1585-9.321 9.2707s4.1815 9.2707 9.321 9.2707c2.7089 0 5.2282-1.125 6.913-3.0865l.4239-.4945-2.6345-2.2055-.4247.4927z" fill="#1a477f"/><path d="m13.9432 9.15902h-4.26359c-.06419-.0028-1.57914-.05775-2.33803-.65195l.72113-.502c.59277.46381 1.62067.51318 1.63105.51318h2.73354c-1.8104-1.72767-3.68215-2.56589-5.61902-2.49417-2.44658.09127-4.36457 1.65595-5.22068 2.49417h1.71506l-.16896.63984h-2.960055l.419089-.5197c.102885-.12666 2.551346-3.11538 6.185336-3.25415 2.30499-.08941 4.54953 1.00027 6.65823 3.23552l.5069.53833z" fill="#a77c4f"/><path d="m4.72794 9.01908c-.02926 0-.21898 0-.22559 0l.20388-.63984c.05286.00466 1.25349.03446 2.25025-1.16513.41531-.4992.8646-.59141 1.18081-.58675 1.02507.02608 2.24461 1.5237 2.28141 1.57306l-.85802.04843c-.20199-.26823-.85328-.96675-1.44038-.98165-.23598-.00279-.45874.1099-.66073.35299-1.10152 1.32531-2.44563 1.39982-2.73069 1.39982z" fill="#a77c4f"/><path d="m5.5784 12.0974c-.73812 0-1.34788-.3911-1.75942-1.1465-.45401-.8335-.49271-1.85988-.10666-2.81545.34925-.8643.82686-1.36537 1.42057-1.48831.74567-.15647 1.34505.37068 1.37053.39303l-.48705.45823.24353-.22911-.24164.23004s-.36434-.30828-.73529-.22725c-.34264.07358-.65979.44891-.91653 1.08596-.31903.78979-.29072 1.6308.0774 2.30696.39455.7246.93351.9435 1.69901.6929l.23598.6026c-.2794.0922-.54652.1379-.79948.1379z" fill="#a77c4f"/><path d="m7.03859 13.431c-.08684 0-.17368-.0018-.26052-.0046-3.63399-.1388-6.083395-3.1266-6.185336-3.2542l-.419089-.51966h2.959105l.16896.63986h-1.71506c.85612.8373 2.77411 2.4019 5.22068 2.4942 1.93499.0726 3.80857-.7666 5.61897-2.4942h-2.74764s-1.02507.0503-1.61689.5132l-.72113-.502c.75889-.59424 2.27478-.64919 2.32481-.65199h4.27775l-.5069.53739c-2.0294 2.1514-4.1805 3.2402-6.39771 3.2402z" fill="#a77c4f"/><path d="m8.10334 12.1839c-.30865 0-.74662-.1062-1.14589-.5877-.99581-1.1987-2.19833-1.1689-2.25024-1.1651l-.20388-.64081c.06324-.00186 1.74148-.06054 2.95533 1.39981.20294.244.42664.367.66167.353.58993-.0149 1.23933-.7134 1.43944-.9807l.86743.0382c-.0368.0493-1.26576 1.5563-2.29082 1.5823-.01133 0-.02171 0-.03398 0z" fill="#a77c4f"/><path d="m99.8536 0s-6.4968 7.86156-18.1463 7.57005v7.91745h36.2917v-7.91745c-11.649.29058-18.1463-7.57005-18.1463-7.57005z" fill="#ffb600"/><path d="m81.7073 7.60825v28.82175c11.6486-.2906 18.1463 7.57 18.1463 7.57v-28.8217s-6.4968-7.86156-18.1463-7.57005z" fill="#00a0a9"/><path d="m118 7.60825v28.82175c-11.649-.2906-18.1464 7.57-18.1464 7.57v-28.8217s6.4964-7.86156 18.1464-7.57005z" fill="#006e96"/><path d="m94.6179 26.0772c.1661.7255.2473 1.479.2388 2.2623-.0085.8-.1133 1.5153-.3106 2.1411-.201.6287-.4814 1.1456-.8485 1.5545-.3644.407-.7986.6799-1.3026.8233-.5022.1406-1.0553.1248-1.6584-.0456-.8958-.2534-1.6264-.6837-2.1965-1.2937-.5701-.6091-1.0194-1.3495-1.3422-2.2194-.3228-.8736-.5418-1.845-.6579-2.9254s-.168-2.2213-.1557-3.4302c.0103-.9854.0972-1.9605.2652-2.9189.168-.962.4351-1.8031.8051-2.5211.3672-.7228.8477-1.2583 1.4414-1.6113.5908-.353 1.3186-.4051 2.1785-.162.4861.1378.9458.3781 1.3733.719.4248.3409.8033.7544 1.1308 1.2396.3266.4852.5918 1.032.7967 1.6411.2029.6081.3105 1.2526.3294 1.9325l-1.9878-.5625c-.0387-.6864-.2115-1.2825-.5145-1.7854-.3039-.503-.7164-.8261-1.2402-.9742-.3587-.1015-.6702-.0997-.9345.0046-.2643.1081-.488.286-.6692.5309-.1841.2477-.3323.5467-.4484.8997-.1132.3539-.2067.7339-.2822 1.1362-.0727.4033-.1284.8075-.1605 1.2155-.032.4079-.0641.7879-.0915 1.1418l.0349.0578c.2737-.584.6485-.9677 1.1223-1.1568.4738-.1863.9826-.204 1.5291-.0494.6032.1705 1.144.4648 1.6169.8811s.8731.9193 1.1987 1.5069c.3257.5887.5711 1.2434.7401 1.9661zm-1.8935 2.8993c.0934-.3902.1416-.8075.1463-1.2471.0047-.4359-.034-.8745-.1189-1.3048-.0821-.4331-.2105-.828-.388-1.1847-.1774-.3567-.3992-.6678-.6635-.9323-.2653-.2645-.5777-.4461-.9383-.5476-.3605-.1015-.6748-.1015-.9523.0028-.2738.1015-.506.2803-.6947.5336-.1888.2534-.3323.571-.4314.9528-.0963.3791-.1463.7991-.151 1.2527s.0368.8987.1236 1.3337c.0897.4349.2256.8391.4087 1.2108.1822.3753.4087.6947.6787.9602.2728.2663.5871.4489.9458.5504.3615.1025.6758.095.9448-.0251.269-.1202.4956-.3148.6796-.5756.1841-.2617.32-.5877.4106-.9789" fill="#fff"/><path d="m110.977 18.4009c-2.02.8428-4.039 1.6857-6.059 2.5286v-2.1831c3.032-1.2657 6.066-2.5305 9.099-3.7962v.3232c-1.577 5.3674-3.155 10.7357-4.732 16.1031l-2.493 1.0403c1.395-4.6717 2.79-9.3443 4.185-14.0159z" fill="#fff"/></svg>