<?xml version="1.0" standalone="no"?>
<!DOCTYPE svg PUBLIC "-//W3C//DTD SVG 20010904//EN"
 "http://www.w3.org/TR/2001/REC-SVG-20010904/DTD/svg10.dtd">
<svg version="1.0" xmlns="http://www.w3.org/2000/svg"
 width="118.000000pt" height="44.000000pt" viewBox="0 0 118.000000 44.000000"
 preserveAspectRatio="xMidYMid meet">

<g transform="translate(0.000000,44.000000) scale(0.100000,-0.100000)"
fill="#000000" stroke="none">
<path d="M867 353 c-43 -13 -76 -28 -72 -31 3 -4 21 -12 38 -18 42 -14 51 -59
14 -73 -32 -12 -43 -55 -22 -87 8 -13 23 -24 31 -24 13 0 15 8 10 38 -4 20 -3
42 1 47 5 6 50 10 101 10 l92 0 0 -43 c0 -50 -36 -95 -73 -92 -35 3 -47 1 -47
-10 0 -23 30 -20 71 7 23 15 54 35 68 44 38 23 42 81 7 105 -41 26 -34 58 17
79 l42 18 -85 28 c-46 16 -91 29 -100 28 -8 -1 -50 -12 -93 -26z m-12 -178 c0
-50 -10 -58 -25 -19 -7 17 -7 32 0 45 17 31 25 22 25 -26z m240 0 c0 -21 -5
-40 -12 -42 -7 -3 -11 11 -11 42 0 31 4 45 11 42 7 -2 12 -21 12 -42z"/>
<path d="M1080 266 c0 -22 3 -27 11 -19 8 8 8 16 0 30 -9 16 -10 14 -11 -11z"/>
<path d="M215 248 c-2 -7 -13 -37 -24 -65 -16 -44 -17 -53 -5 -53 8 0 17 7 20
15 4 8 17 15 30 15 14 0 27 -7 30 -15 4 -8 12 -15 20 -15 10 0 7 15 -10 63
-23 59 -50 85 -61 55z m35 -60 c0 -5 -7 -8 -15 -8 -17 0 -18 2 -9 25 5 13 8
14 15 3 5 -7 9 -16 9 -20z"/>
<path d="M320 196 l0 -66 40 0 c28 0 42 5 49 19 6 10 8 21 4 24 -3 4 -6 24 -7
44 -1 37 -2 38 -43 41 l-43 3 0 -65z m70 29 c0 -9 -9 -15 -25 -15 -16 0 -25 6
-25 15 0 9 9 15 25 15 16 0 25 -6 25 -15z m0 -60 c0 -9 -9 -15 -25 -15 -16 0
-25 6 -25 15 0 9 9 15 25 15 16 0 25 -6 25 -15z"/>
<path d="M440 205 c0 -47 3 -57 24 -71 22 -13 29 -14 53 -2 25 12 28 19 31 71
2 46 0 57 -13 57 -12 0 -15 -12 -15 -56 0 -54 0 -55 -27 -52 -26 3 -28 7 -31
56 -4 69 -22 67 -22 -3z"/>
<path d="M915 180 c-7 -12 2 -30 16 -30 5 0 9 9 9 20 0 21 -15 27 -25 10z"/>
<path d="M985 180 c-7 -12 2 -30 16 -30 5 0 9 9 9 20 0 21 -15 27 -25 10z"/>
<path d="M570 140 c0 -5 5 -10 10 -10 6 0 10 5 10 10 0 6 -4 10 -10 10 -5 0
-10 -4 -10 -10z"/>
<path d="M937 108 c2 -5 15 -8 28 -8 13 0 26 3 28 8 3 4 -10 7 -28 7 -18 0
-31 -3 -28 -7z"/>
</g>
</svg>
